<?xml version="1.0" encoding="UTF-8"?>
<svg id="Layer_3" data-name="Layer 3" xmlns="http://www.w3.org/2000/svg" viewBox="0 0 501.19 617.61">
  <defs>
    <style>
      .cls-1 {
        fill: #ff5768;
      }
    </style>
  </defs>
  <path class="cls-1" d="m494.31,599.79c-8.35,11.83-23.19,17.82-44.1,17.82h-.36c-21.65-.63-103.08-.49-163.45-.29-12.8.04-24.65.09-34.78.14h-.86c-10.4-.05-22.68-.09-35.98-.14-60.38-.2-141.8-.34-163.44.29h-.36c-20.92,0-35.76-5.99-44.11-17.82-8.13-11.52-9.08-27.81-2.67-45.86.07-.22.16-.44.25-.66L149.48,208.59V79.19c-4.43-.06-9.01,0-12.13.35-.45.05-.91.07-1.37.07-9.88,0-18.85-5.73-24.61-15.72-4.27-7.39-6.71-17.06-6.71-26.51s2.26-17.67,6.54-24.14c5.66-8.54,14.45-13.24,24.78-13.24h229.23c18.73,0,31.32,15.02,31.32,37.38,0,9.45-2.45,19.12-6.71,26.51-5.76,9.99-14.73,15.72-24.61,15.72-.46,0-.92-.02-1.38-.07-3.11-.35-7.7-.41-12.12-.35v129.4l145.02,344.68c.09.22.18.44.26.66,6.41,18.05,5.46,34.34-2.68,45.86Z"/>
</svg>