<?xml version="1.0" encoding="UTF-8"?>
<svg id="Layer_3" data-name="Layer 3" xmlns="http://www.w3.org/2000/svg" viewBox="0 0 501 689">
  <defs>
    <style>
      .cls-1 {
        fill: #ff5768;
      }
    </style>
  </defs>
  <path class="cls-1" d="m494.08,671c-8.35,11.83-23.19,17.82-44.1,17.82h-.36c-21.65-.63-103.08-.49-163.45-.29-12.8.04-24.65.09-34.78.14h-.86c-10.4-.05-22.68-.09-35.98-.14-60.38-.2-141.8-.34-163.44.29h-.36c-20.92,0-35.76-5.99-44.11-17.82-8.13-11.52-9.08-27.81-2.67-45.86.07-.22.16-.44.25-.66l145.03-344.68v-129.4c-4.43-.06-9.01,0-12.13.35-.45.05-.91.07-1.37.07-9.88,0-18.85-5.73-24.61-15.72-4.27-7.39-6.71-17.06-6.71-26.51s2.26-17.67,6.54-24.14c5.66-8.54,14.45-13.24,24.78-13.24h39c6.9,0,12.5,5.59,12.5,12.5s-5.6,12.5-12.5,12.5h-39c-5.87,0-6.32,9.47-6.32,12.38,0,9.82,4.33,16.62,6.09,17.19,9.86-.89,25.18-.04,26.96.07,6.61.38,11.77,5.86,11.77,12.47v144c0,1.67-.34,3.32-.98,4.85L27.41,633.83c-3.4,9.75-3.53,18.24-.35,22.75,4.2,5.95,15.07,7.23,23.51,7.24,27.53-.77,142.89-.4,200.38-.15,57.87-.25,171.86-.62,199.2.15,8.45-.01,19.31-1.29,23.51-7.24,3.19-4.51,3.05-13-.35-22.75l-145.85-346.66c-.65-1.53-.98-3.18-.98-4.85v-144c0-6.61,5.16-12.09,11.76-12.47,1.78-.11,17.05-.96,26.91-.07.47-.2,1.56-1.05,2.78-3.16,2.11-3.66,3.37-8.91,3.37-14.03,0-2.91-.46-12.38-6.32-12.38h-39c-6.9,0-12.5-5.6-12.5-12.5s5.6-12.5,12.5-12.5h39c18.73,0,31.32,15.02,31.32,37.38,0,9.45-2.45,19.12-6.71,26.51-5.76,9.99-14.73,15.72-24.61,15.72-.46,0-.92-.02-1.38-.07-3.11-.35-7.7-.41-12.12-.35v129.4l145.02,344.68c.09.22.18.44.26.66,6.41,18.05,5.46,34.34-2.68,45.86Z"/>
  <path class="cls-1" d="m151.07,466.09l22-57.92h28l-12,33.58h50.16v-32.2h19.21v32.2h54.58l-10-35.73h27l21,60.07h-199.97Z"/>
  <path class="cls-1" d="m233.34,323.16v34.46h-7.81c-3.64,0-5.96.44-6.96,1.32-1,.88-1.5,2.35-1.5,4.41,0,2.23.67,3.92,2.02,5.07,1.35,1.15,3.39,1.72,6.12,1.72,3.52,0,6.16-.64,7.94-1.93,1.78-1.23,3.93-4.72,6.44-10.48,7.24-16.52,13.17-26.92,17.81-31.21,4.64-4.29,12.12-6.43,22.44-6.43,7.5,0,13.03,1.19,16.59,3.57,3.56,2.38,6.54,6.98,8.95,13.79,2.41,6.82,3.61,14.75,3.61,23.79,0,9.93-1.39,18.41-4.16,25.43-2.78,7.02-6.31,11.62-10.6,13.79-4.29,2.17-10.39,3.26-18.28,3.26h-6.9v-34.46h12.82c3.95,0,6.48-.49,7.61-1.45,1.13-.97,1.69-2.69,1.69-5.16s-.72-4.3-2.15-5.51c-1.43-1.2-3.56-1.81-6.37-1.81-6.2,0-10.26,1.15-12.17,3.44-1.91,2.35-5.09,8.14-9.56,17.36-4.51,9.23-7.78,15.34-9.82,18.33-2.04,3-4.86,5.48-8.46,7.45-3.6,1.97-8.2,2.95-13.79,2.95-8.07,0-13.96-1.4-17.7-4.19-3.73-2.79-6.64-7.3-8.75-13.53-2.1-6.23-3.16-13.75-3.16-22.56,0-9.64,1.15-17.85,3.45-24.63,2.3-6.79,5.2-11.28,8.68-13.48,3.49-2.2,9.42-3.3,17.79-3.3h4.16Z"/>
  <path class="cls-1" d="m248.2,239.88v32.34h-15.95c-4.64,0-7.53.35-8.69,1.04-1.15.69-1.73,2.22-1.73,4.57,0,2.66.7,4.35,2.1,5.07,1.4.72,4.42,1.08,9.07,1.08h42.64c4.46,0,7.37-.36,8.73-1.08,1.36-.72,2.04-2.33,2.04-4.84s-.68-3.98-2.04-4.72c-1.37-.74-4.57-1.11-9.61-1.11h-11.54v-32.34h3.58c9.5,0,16.24.91,20.21,2.73,3.98,1.82,7.46,5.84,10.45,12.06,2.99,6.22,4.49,13.89,4.49,23s-1.27,17.28-3.8,23.43c-2.53,6.14-6.04,10.22-10.52,12.21-4.48,2-11.22,3-20.21,3h-26.82c-6.61,0-11.58-.31-14.88-.92-3.31-.61-6.49-2.44-9.55-5.49s-5.47-7.27-7.23-12.67c-1.76-5.4-2.64-11.61-2.64-18.63,0-9.52,1.36-17.38,4.08-23.58,2.72-6.19,6.11-10.27,10.16-12.21,4.06-1.95,10.37-2.92,18.94-2.92h8.72Z"/>
  <path class="cls-1" d="m208.23,172.38l91.79-18.49v33.05l-16.5,1.74v11.57l16.5,1.94v33.43l-91.79-16.5v-46.74Zm59.02,17.14c-10.4,1.64-23.25,3.28-38.55,4.93,17.58,3.29,30.43,5.36,38.55,6.21v-11.13Z"/>
  <path class="cls-1" d="m208.23,148.4v-32.57c0-8.81.51-15.58,1.53-20.32,1.02-4.74,2.49-8.3,4.42-10.68,1.93-2.38,4.26-3.99,7-4.84,2.74-.85,6.98-1.27,12.73-1.27h7.99c5.86,0,10.13.82,12.81,2.46,2.68,1.64,4.74,4.65,6.18,9.03,1.44,4.38,2.15,10.1,2.15,17.17v8.68h36.97v32.34h-91.79Zm15.71-32.34h23.36c.04-.92.06-1.72.06-2.38,0-2.97-.54-5.03-1.62-6.18-1.08-1.15-3.32-1.73-6.72-1.73h-7.54c-3.14,0-5.18.67-6.12,2-.95,1.33-1.42,4.1-1.42,8.3Z"/>
  <path class="cls-1" d="m210.94,53.09L222.64.46l17.7,3.94-4.69,21.07,16.77,3.73,4.38-19.72,16.83,3.74-4.38,19.72,19.45,4.32,5.15-23.17,17.7,3.94-12.17,54.73-88.44-19.67Z"/>
  <g>
    <path class="cls-1" d="m159.1,473.24l-59,151.85,76.38.12-5.57,38.87H29.43l79-190.84h50.67Z"/>
    <path class="cls-1" d="m286.24,474.24l30.63,194.84h-54.75l-2.87-35.02h-19.16l-3.22,35.02h-55.39l27.33-194.84h77.43Zm-28.39,125.28c-2.71-22.07-5.43-49.34-8.16-81.83-5.46,37.31-8.89,64.59-10.28,81.83h18.44Z"/>
    <path class="cls-1" d="m294.55,474.25h46.62c14.72-.3,26.23.75,34.51,3.17,8.28,2.41,15.82,7.5,22.6,15.25,6.79,7.75,12.54,12.64,17.26,30.08,3.19,11.79,3.77,20.05,1.74,24.77-2.03,4.72-7.56,8.43-16.58,11.13,11.55,2.52,20.1,6.91,25.67,13.19,5.57,6.28,10.13,15.99,13.69,29.13l5.06,18.71c3.69,13.64,5.04,23.77,4.04,30.4-1,6.63-4.2,11.21-9.62,13.75-5.42,2.54-17.52,4.01-36.31,4.41l-71.84.74-36.84-194.73Zm56.07,26.84l12.15,44.88c1.98-.12,3.52-.2,4.63-.22,4.59-.1,7.17-1.43,7.74-3.99.57-2.56-.76-9.83-4-21.79-1.71-6.32-3.43-10.73-5.15-13.24-1.72-2.51-3.51-4.08-5.35-4.71-1.85-.63-5.18-.93-10.02-.92Zm20.65,76.3l15.28,56.47c6.52-.39,10.4-1.64,11.65-3.76,1.25-2.12.77-7.25-1.43-15.39l-5.09-18.82c-2.34-8.64-4.57-13.86-6.69-15.66-2.12-1.79-6.7-2.74-13.72-2.84Z"/>
  </g>
</svg>