<?xml version="1.0" encoding="UTF-8"?>
<svg id="Layer_3" data-name="Layer 3" xmlns="http://www.w3.org/2000/svg" viewBox="0 0 498 690">
  <defs>
    <style>
      .cls-1 {
        fill: #fff;
      }
    </style>
  </defs>
  <path class="cls-1" d="m451.81,616.58c-6.95,9.84-19.3,14.83-36.7,14.83h-.3c-18.02-.52-85.78-.41-136.01-.24-10.65.03-20.51.07-28.94.12h-.72c-8.65-.04-18.87-.07-29.94-.12-50.24-.17-118-.28-136.01.24h-.3c-17.41,0-29.76-4.98-36.71-14.83-6.77-9.59-7.56-23.14-2.22-38.16.06-.18.13-.37.21-.55l120.69-286.82v-107.68c-3.69-.05-7.5,0-10.09.29-.37.04-.76.06-1.14.06-8.22,0-15.69-4.77-20.48-13.08-3.55-6.15-5.58-14.2-5.58-22.06s1.88-14.7,5.44-20.09c4.71-7.11,12.02-11.02,20.62-11.02h32.45c5.74,0,10.4,4.65,10.4,10.4s-4.66,10.4-10.4,10.4h-32.45c-4.88,0-5.26,7.88-5.26,10.3,0,8.17,3.6,13.83,5.07,14.3,8.2-.74,20.95-.03,22.43.06,5.5.32,9.79,4.88,9.79,10.38v119.83c0,1.39-.28,2.76-.82,4.04l-121.38,288.47c-2.83,8.11-2.94,15.18-.29,18.93,3.49,4.95,12.54,6.02,19.56,6.02,22.91-.64,118.91-.33,166.75-.12,48.16-.21,143.01-.52,165.76.12,7.03,0,16.07-1.07,19.56-6.02,2.65-3.75,2.54-10.82-.29-18.93l-121.37-288.47c-.54-1.27-.82-2.65-.82-4.04v-119.83c0-5.5,4.29-10.06,9.79-10.38,1.48-.09,14.19-.8,22.39-.06.39-.17,1.3-.87,2.31-2.63,1.76-3.05,2.8-7.41,2.8-11.68,0-2.42-.38-10.3-5.26-10.3h-32.45c-5.74,0-10.4-4.66-10.4-10.4s4.66-10.4,10.4-10.4h32.45c15.59,0,26.06,12.5,26.06,31.11,0,7.86-2.04,15.91-5.58,22.06-4.79,8.31-12.26,13.08-20.48,13.08-.38,0-.77-.02-1.15-.06-2.59-.29-6.41-.34-10.09-.29v107.68l120.68,286.82c.07.18.15.37.22.55,5.33,15.02,4.54,28.58-2.23,38.16Z"/>
  <path class="cls-1" d="m166.37,446.07l18.31-48.2h23.3l-9.99,27.95h41.74v-26.8h15.99v26.8h45.42l-8.32-29.74h22.47l17.48,49.99h-166.4Z"/>
  <path class="cls-1" d="m234.83,327.13v28.68h-6.5c-3.03,0-4.96.37-5.79,1.1-.83.73-1.24,1.96-1.24,3.67,0,1.86.56,3.26,1.68,4.22,1.12.95,2.82,1.43,5.09,1.43,2.93,0,5.13-.54,6.61-1.61,1.48-1.02,3.27-3.93,5.36-8.72,6.02-13.74,10.96-22.4,14.82-25.97,3.86-3.57,10.09-5.35,18.68-5.35,6.24,0,10.85.99,13.8,2.97,2.96,1.98,5.44,5.81,7.44,11.48,2,5.67,3,12.27,3,19.8,0,8.26-1.16,15.32-3.46,21.16-2.31,5.84-5.25,9.67-8.82,11.48-3.57,1.81-8.64,2.71-15.21,2.71h-5.74v-28.67h10.66c3.28,0,5.4-.4,6.33-1.21.94-.81,1.41-2.24,1.41-4.29s-.6-3.58-1.79-4.58c-1.19-1-2.96-1.5-5.3-1.5-5.16,0-8.53.95-10.12,2.86-1.59,1.96-4.24,6.77-7.96,14.45-3.75,7.68-6.48,12.76-8.18,15.25-1.7,2.49-4.04,4.56-7.04,6.2-2.99,1.64-6.82,2.46-11.48,2.46-6.71,0-11.62-1.16-14.73-3.48-3.1-2.32-5.53-6.07-7.28-11.26-1.75-5.18-2.63-11.44-2.63-18.78,0-8.02.96-14.85,2.87-20.5,1.91-5.65,4.32-9.39,7.23-11.22,2.91-1.83,7.84-2.75,14.81-2.75h3.46Z"/>
  <path class="cls-1" d="m247.2,257.83v26.91h-13.28c-3.86,0-6.27.29-7.23.86-.96.58-1.44,1.84-1.44,3.8,0,2.22.58,3.62,1.75,4.22,1.16.6,3.68.89,7.55.89h35.48c3.71,0,6.13-.3,7.27-.89,1.13-.6,1.7-1.94,1.7-4.03s-.57-3.31-1.7-3.93c-1.14-.62-3.8-.93-7.99-.93h-9.6v-26.91h2.98c7.91,0,13.51.76,16.82,2.27,3.31,1.51,6.21,4.86,8.69,10.04,2.49,5.18,3.73,11.56,3.73,19.14s-1.05,14.38-3.16,19.49c-2.11,5.11-5.03,8.5-8.75,10.16-3.73,1.66-9.33,2.49-16.82,2.49h-22.32c-5.5,0-9.63-.26-12.38-.77-2.75-.51-5.4-2.03-7.95-4.57-2.55-2.54-4.55-6.05-6.01-10.55-1.46-4.5-2.19-9.66-2.19-15.5,0-7.93,1.13-14.47,3.39-19.62,2.26-5.16,5.08-8.54,8.46-10.16,3.38-1.62,8.63-2.43,15.76-2.43h7.26Z"/>
  <path class="cls-1" d="m213.94,201.66l76.39-15.39v27.5l-13.73,1.44v9.63l13.73,1.62v27.82l-76.39-13.73v-38.89Zm49.12,14.26c-8.65,1.36-19.35,2.73-32.08,4.1,14.63,2.74,25.32,4.46,32.08,5.16v-9.26Z"/>
  <path class="cls-1" d="m213.94,181.7v-27.1c0-7.33.42-12.96,1.27-16.91.85-3.94,2.08-6.9,3.68-8.88,1.6-1.98,3.55-3.32,5.83-4.03,2.28-.7,5.81-1.05,10.59-1.05h6.65c4.88,0,8.43.68,10.66,2.05,2.23,1.36,3.95,3.87,5.14,7.51,1.2,3.64,1.79,8.41,1.79,14.29v7.22h30.76v26.91h-76.39Zm13.07-26.91h19.44c.03-.77.05-1.43.05-1.98,0-2.47-.45-4.19-1.34-5.15-.9-.96-2.76-1.44-5.59-1.44h-6.28c-2.61,0-4.31.55-5.1,1.66-.79,1.11-1.18,3.41-1.18,6.9Z"/>
  <path class="cls-1" d="m216.19,102.39l9.74-43.8,14.73,3.28-3.9,17.53,13.96,3.1,3.65-16.41,14,3.11-3.65,16.41,16.18,3.6,4.29-19.28,14.73,3.28-10.13,45.55-73.6-16.37Z"/>
  <g>
    <path class="cls-1" d="m173.05,452.01l-49.1,126.36,63.56.1-4.64,32.34h-117.73l65.74-158.81h42.16Z"/>
    <path class="cls-1" d="m278.85,452.84l25.49,162.13h-45.56l-2.39-29.14h-15.95l-2.68,29.14h-46.09l22.74-162.13h64.43Zm-23.63,104.25c-2.26-18.36-4.52-41.06-6.79-68.1-4.54,31.05-7.39,53.75-8.56,68.1h15.35Z"/>
    <path class="cls-1" d="m285.77,452.85h38.79c12.25-.25,21.82.63,28.72,2.64,6.89,2.01,13.16,6.24,18.81,12.69,5.65,6.45,10.43,10.52,14.36,25.03,2.66,9.81,3.14,16.69,1.45,20.62-1.69,3.93-6.29,7.01-13.8,9.26,9.61,2.09,16.73,5.75,21.36,10.98,4.63,5.23,8.43,13.31,11.39,24.24l4.21,15.57c3.07,11.35,4.19,19.78,3.36,25.3-.83,5.52-3.5,9.33-8,11.44-4.51,2.11-14.58,3.34-30.22,3.67l-59.78.62-30.66-162.05Zm46.66,22.33l10.11,37.35c1.64-.1,2.93-.17,3.85-.19,3.82-.08,5.96-1.19,6.44-3.32.48-2.13-.63-8.18-3.33-18.14-1.42-5.26-2.85-8.93-4.28-11.02-1.43-2.09-2.92-3.4-4.45-3.92-1.54-.52-4.31-.78-8.33-.76Zm17.18,63.49l12.72,46.99c5.42-.32,8.66-1.37,9.7-3.13,1.04-1.76.64-6.03-1.19-12.81l-4.24-15.66c-1.95-7.19-3.8-11.53-5.57-13.03-1.77-1.49-5.57-2.28-11.42-2.37Z"/>
  </g>
</svg>