<?xml version="1.0" encoding="UTF-8"?>
<svg id="Layer_2" data-name="Layer 2" xmlns="http://www.w3.org/2000/svg" viewBox="0 0 52 42">
  <defs>
    <style>
      .cls-1 {
        fill: #d8233d;
      }
    </style>
  </defs>
  <path class="cls-1" d="m17.73-3h16.53c5.92,0,10.73,4.81,10.73,10.73v18.27c0,10.49-8.51,19-19,19h0c-10.49,0-19-8.51-19-19V7.73C7,1.81,11.81-3,17.73-3Z" transform="translate(47 -5) rotate(90)"/>
  <path d="m39.27,42h-18.27C9.42,42,0,32.58,0,21S9.42,0,21,0h18.27c7.02,0,12.73,5.71,12.73,12.73v16.53c0,7.02-5.71,12.73-12.73,12.73ZM21,4c-9.37,0-17,7.63-17,17s7.63,17,17,17h18.27c4.82,0,8.73-3.92,8.73-8.73V12.73c0-4.82-3.92-8.73-8.73-8.73h-18.27Z"/>
</svg>